<?xml version="1.0" encoding="UTF-8" standalone="no"?> <svg width="512" height="512" viewBox="0 0 512 512" fill="none" xmlns="http://www.w3.org/2000/svg">
<path d="M367.279 152C373.835 152 380.123 154.605 384.759 159.241C389.395 163.877 392 170.165 392 176.721V176.721C392 181.312 390.722 185.813 388.308 189.718C385.894 193.623 382.441 196.78 378.334 198.833L352 216V152H367.279Z" fill="#E8CBBF"/>
<path d="M482.718 467.928L461.033 385.524C457.142 370.74 449.097 357.38 437.85 347.026C426.603 336.672 412.624 329.757 397.569 327.1L312 312H200L114.431 327.1C99.3758 329.757 85.3974 336.672 74.1502 347.026C62.9031 357.38 54.858 370.74 50.9675 385.524L29.2821 467.928C28.6591 470.296 28.5876 472.775 29.0733 475.174C29.559 477.574 30.5888 479.83 32.0835 481.769C33.5781 483.707 35.4978 485.278 37.6947 486.358C39.8916 487.438 42.3071 488 44.7553 488H467.245C469.693 488 472.108 487.438 474.305 486.358C476.502 485.278 478.422 483.707 479.917 481.769C481.411 479.83 482.441 477.574 482.927 475.174C483.412 472.775 483.341 470.296 482.718 467.928Z" fill="#B8C2C2"/>
<path d="M195.405 345.703C214.219 355.11 234.965 360.007 256 360.007C277.035 360.007 297.781 355.11 316.595 345.703L365.217 321.391L312 312H200L146.783 321.391L195.405 345.703Z" fill="#A7B2B1"/>
<path d="M200 272V312L203.635 314.077C219.582 323.19 237.632 327.983 256 327.983C274.368 327.983 292.418 323.19 308.365 314.077L312 312V272H200Z" fill="#E8CBBF"/>
<path d="M144.721 152C138.165 152 131.877 154.605 127.241 159.241C122.605 163.877 120 170.165 120 176.721V176.721C120 181.312 121.278 185.813 123.692 189.718C126.106 193.623 129.559 196.78 133.666 198.833L160 216V152H144.721Z" fill="#E8CBBF"/>
<path d="M296 24H216C199.026 24 182.747 30.7428 170.745 42.7452C158.743 54.7475 152 71.0261 152 88V184.573C152 205.595 158.37 226.123 170.272 243.451C182.173 260.779 199.046 274.094 218.666 281.641H218.666C242.697 290.884 269.303 290.884 293.334 281.641H293.334C312.954 274.094 329.827 260.779 341.728 243.451C353.63 226.123 360 205.595 360 184.573V88C360 71.0261 353.257 54.7475 341.255 42.7452C329.252 30.7428 312.974 24 296 24Z" fill="#F5DDD5"/>
<path d="M136 392H120V488H136V392Z" fill="#A7B2B1"/>
<path d="M392 392H376V488H392V392Z" fill="#A7B2B1"/>
<path d="M304 248H298.974C291.768 248.007 284.743 245.743 278.898 241.529C273.052 237.316 268.683 231.368 266.411 224.53C266.359 224.375 266.261 224.241 266.129 224.146C265.997 224.051 265.838 224 265.675 224H246.325C246.162 224 246.003 224.051 245.871 224.146C245.739 224.241 245.641 224.375 245.589 224.53C243.317 231.368 238.948 237.316 233.102 241.529C227.257 245.743 220.232 248.007 213.026 248H208V232H213.026C216.873 232.004 220.623 230.795 223.744 228.546C226.865 226.296 229.198 223.121 230.411 219.47C231.521 216.128 233.656 213.221 236.513 211.162C239.37 209.103 242.803 207.997 246.325 208H265.675C269.197 207.997 272.63 209.103 275.487 211.162C278.344 213.221 280.479 216.128 281.589 219.47C282.802 223.121 285.135 226.296 288.256 228.546C291.377 230.795 295.127 232.004 298.974 232H304V248Z" fill="#776E6B"/>
<path d="M272 248H240V264H272V248Z" fill="#C9AB9F"/>
<path d="M280 56H232V72H280V56Z" fill="#E8CBBF"/>
<path d="M296 88H216V104H296V88Z" fill="#E8CBBF"/>
<path d="M304 24V24.0001C304 41.5639 307.8 58.9198 315.139 74.8767C322.478 90.8337 333.183 105.014 346.518 116.444L360 128V79.9999C360 65.1478 354.1 50.904 343.598 40.402C333.096 29.9 318.852 24 304 24H304Z" fill="#F4EDEA"/>
<path d="M296 400H344V448L320 456L296 448V400Z" fill="#655A56"/>
<path d="M208 24C208 41.5638 204.2 58.9197 196.861 74.8767C189.522 90.8336 178.817 105.014 165.482 116.444L152 128V79.9999C152 72.6459 153.448 65.3639 156.263 58.5696C159.077 51.7754 163.202 45.602 168.402 40.402C173.602 35.2019 179.775 31.077 186.57 28.2627C193.364 25.4485 200.646 24 208 24H208Z" fill="#F4EDEA"/>
<path d="M323.695 144C320.89 139.136 316.854 135.096 311.992 132.288C307.131 129.479 301.615 128 296 128C290.385 128 284.869 129.479 280.008 132.288C275.146 135.096 271.11 139.136 268.305 144H243.695C240.89 139.136 236.854 135.096 231.992 132.288C227.131 129.479 221.615 128 216 128C210.385 128 204.869 129.479 200.008 132.288C195.146 135.096 191.11 139.136 188.305 144H152V160H184C184 168.487 187.371 176.626 193.373 182.627C199.374 188.629 207.513 192 216 192C224.487 192 232.626 188.629 238.627 182.627C244.629 176.626 248 168.487 248 160H264C264 168.487 267.371 176.626 273.373 182.627C279.374 188.629 287.513 192 296 192C304.487 192 312.626 188.629 318.627 182.627C324.629 176.626 328 168.487 328 160H360V144H323.695ZM216 176C212.835 176 209.742 175.062 207.111 173.303C204.48 171.545 202.429 169.047 201.218 166.123C200.007 163.199 199.69 159.982 200.307 156.879C200.925 153.775 202.449 150.924 204.686 148.686C206.924 146.449 209.775 144.925 212.879 144.307C215.982 143.69 219.199 144.007 222.123 145.218C225.047 146.429 227.545 148.48 229.304 151.111C231.062 153.742 232 156.835 232 160C231.995 164.242 230.308 168.309 227.308 171.308C224.309 174.308 220.242 175.995 216 176V176ZM296 176C292.835 176 289.742 175.062 287.111 173.303C284.48 171.545 282.429 169.047 281.218 166.123C280.007 163.199 279.69 159.982 280.307 156.879C280.925 153.775 282.449 150.924 284.686 148.686C286.924 146.449 289.775 144.925 292.879 144.307C295.982 143.69 299.199 144.007 302.123 145.218C305.047 146.429 307.545 148.48 309.304 151.111C311.062 153.742 312 156.835 312 160C311.995 164.242 310.308 168.309 307.308 171.308C304.309 174.308 300.242 175.995 296 176Z" fill="#655A56"/>
<path d="M490.455 465.892L468.769 383.488C464.461 367.24 455.603 352.56 443.236 341.175C430.869 329.79 415.508 322.174 398.959 319.222L364.577 313.155L364.422 312.845L364.004 313.054L320 305.288V276.488C341.254 261.685 356.723 239.977 363.777 215.056L381.913 205.988C388.45 202.72 393.705 197.357 396.839 190.755C399.973 184.152 400.806 176.69 399.205 169.559C397.604 162.428 393.662 156.038 388.006 151.409C382.35 146.78 375.307 144.178 368 144.018V88C367.978 68.911 360.386 50.61 346.888 37.1121C333.39 23.6141 315.089 16.0215 296 16H216C196.911 16.0215 178.61 23.6141 165.112 37.1121C151.614 50.61 144.021 68.911 144 88V144.018C136.693 144.178 129.65 146.78 123.994 151.409C118.338 156.038 114.395 162.428 112.794 169.559C111.193 176.691 112.027 184.153 115.161 190.755C118.295 197.358 123.55 202.721 130.088 205.988L148.223 215.056C155.277 239.977 170.746 261.685 192 276.488V305.288L147.995 313.054L147.578 312.845L147.423 313.155L113.04 319.222C96.4922 322.174 81.1311 329.79 68.7641 341.175C56.3971 352.56 47.5385 367.24 43.2304 383.488L21.5458 465.892C20.6111 469.443 20.5039 473.162 21.2323 476.761C21.9608 480.36 23.5055 483.744 25.7475 486.653C27.9895 489.561 30.869 491.916 34.1644 493.537C37.4598 495.157 41.083 496 44.7553 496H467.245C470.917 496 474.54 495.157 477.835 493.537C481.131 491.916 484.01 489.561 486.252 486.653C488.494 483.744 490.039 480.36 490.768 476.761C491.496 473.162 491.389 469.443 490.455 465.892H490.455ZM368 184.573V160.037C371.7 160.194 375.244 161.576 378.073 163.966C380.903 166.356 382.858 169.618 383.632 173.241C384.405 176.863 383.953 180.639 382.347 183.977C380.74 187.314 378.07 190.023 374.757 191.678L367.47 195.321C367.809 191.764 368 188.18 368 184.573ZM137.244 191.678C133.93 190.023 131.26 187.314 129.653 183.977C128.047 180.639 127.595 176.863 128.368 173.241C129.142 169.618 131.097 166.356 133.926 163.966C136.756 161.576 140.299 160.194 144 160.037V184.573C144 188.18 144.191 191.764 144.53 195.321L137.244 191.678ZM352 88V110.606L351.725 110.37C329.271 91.1423 315.197 63.9188 312.491 34.4813C323.924 38.0207 333.926 45.1238 341.034 54.7528C348.142 64.3817 351.985 76.0316 352 88ZM160 88C160.015 76.0316 163.857 64.3817 170.966 54.7528C178.074 45.1238 188.075 38.0207 199.508 34.4813C196.803 63.9188 182.729 91.1423 160.275 110.37L160 110.606V88ZM160 131.68L170.687 122.519C183.88 111.221 194.668 97.3872 202.408 81.8383C210.148 66.2893 214.684 49.343 215.745 32.0065C215.83 32.0061 215.914 32 216 32H296C296.085 32 296.17 32.0061 296.255 32.0065C297.316 49.343 301.852 66.2893 309.592 81.8382C317.332 97.3871 328.119 111.221 341.312 122.519L352 131.68V144H323.695C320.89 139.136 316.854 135.096 311.992 132.288C307.13 129.479 301.615 128 296 128C290.385 128 284.869 129.479 280.008 132.288C275.146 135.096 271.11 139.136 268.305 144H243.695C240.89 139.136 236.854 135.096 231.992 132.288C227.13 129.479 221.615 128 216 128C210.385 128 204.869 129.479 200.008 132.288C195.146 135.096 191.11 139.136 188.305 144H160L160 131.68ZM312 160C312 163.165 311.062 166.258 309.303 168.889C307.545 171.52 305.046 173.571 302.123 174.782C299.199 175.993 295.982 176.31 292.878 175.693C289.775 175.075 286.924 173.551 284.686 171.314C282.449 169.076 280.925 166.225 280.307 163.121C279.69 160.018 280.007 156.801 281.218 153.877C282.429 150.953 284.48 148.455 287.111 146.696C289.742 144.938 292.835 144 296 144C300.242 144.005 304.309 145.692 307.308 148.692C310.308 151.691 311.995 155.758 312 160V160ZM232 160C232 163.165 231.062 166.258 229.303 168.889C227.545 171.52 225.046 173.571 222.123 174.782C219.199 175.993 215.982 176.31 212.878 175.693C209.775 175.075 206.924 173.551 204.686 171.314C202.449 169.076 200.925 166.225 200.307 163.121C199.69 160.018 200.007 156.801 201.218 153.877C202.429 150.953 204.48 148.455 207.111 146.696C209.742 144.938 212.835 144 216 144C220.242 144.005 224.309 145.692 227.308 148.692C230.308 151.691 231.995 155.758 232 160V160ZM176.866 238.922C165.857 222.938 159.975 203.981 160 184.573V160H184C184 168.487 187.371 176.626 193.372 182.627C199.374 188.629 207.513 192 216 192C224.487 192 232.626 188.629 238.627 182.627C244.628 176.626 248 168.487 248 160H264C264 168.487 267.371 176.626 273.372 182.627C279.374 188.629 287.513 192 296 192C304.487 192 312.626 188.629 318.627 182.627C324.628 176.626 328 168.487 328 160H352V184.573C352 205.063 345.444 225.016 333.29 241.514C321.136 258.011 304.023 270.186 284.453 276.259C264.883 282.333 243.883 281.985 224.525 275.267C205.167 268.548 188.467 255.813 176.866 238.922V238.922ZM304 285.77V307.356C289.344 315.597 272.814 319.925 256 319.925C239.186 319.925 222.656 315.597 208 307.356V285.77C210.546 286.975 213.143 288.087 215.794 289.107C241.67 299.079 270.329 299.079 296.205 289.107C298.855 288.088 301.453 286.976 304 285.77ZM198.542 320.381L199.665 321.023C216.836 330.783 236.249 335.915 256 335.915C275.751 335.915 295.163 330.783 312.334 321.023L313.458 320.381L339.987 325.063L313.017 338.547C295.3 347.353 275.784 351.935 256 351.935C236.215 351.935 216.7 347.353 198.983 338.547L172.013 325.063L198.542 320.381ZM473.58 476.884C472.836 477.857 471.877 478.644 470.778 479.185C469.679 479.725 468.469 480.004 467.245 480H392V392H376V480H136V392H120V480H44.7553C43.5312 480 42.3235 479.719 41.2251 479.179C40.1266 478.639 39.1668 477.854 38.4195 476.884C37.6722 475.915 37.1573 474.787 36.9145 473.587C36.6717 472.388 36.7074 471.148 37.019 469.964L58.7035 387.56C62.2283 374.266 69.4762 362.255 79.5946 352.941C89.7131 343.626 102.281 337.394 115.821 334.979L145.57 329.729L191.828 352.858C211.768 362.769 233.732 367.927 256 367.927C278.267 367.927 300.232 362.769 320.172 352.858L366.43 329.729L396.179 334.979C409.719 337.394 422.287 343.626 432.405 352.94C442.523 362.255 449.771 374.266 453.296 387.56L474.981 469.964C475.297 471.148 475.335 472.388 475.092 473.589C474.849 474.789 474.332 475.917 473.58 476.884V476.884Z" fill="black"/>
<path d="M245.589 224.53C245.641 224.375 245.739 224.241 245.871 224.146C246.003 224.051 246.162 224 246.325 224H265.675C265.838 224 265.996 224.051 266.128 224.146C266.26 224.241 266.359 224.375 266.411 224.53C268.683 231.368 273.052 237.316 278.898 241.529C284.743 245.743 291.768 248.007 298.974 248H304V232H298.974C295.127 232.004 291.376 230.795 288.256 228.546C285.135 226.296 282.802 223.121 281.589 219.47C280.479 216.128 278.344 213.221 275.487 211.162C272.63 209.103 269.197 207.997 265.675 208H246.325C242.803 207.997 239.37 209.103 236.513 211.162C233.656 213.221 231.521 216.128 230.411 219.47C229.197 223.121 226.865 226.296 223.744 228.546C220.623 230.795 216.873 232.004 213.026 232H208V248H213.026C220.232 248.007 227.257 245.743 233.102 241.529C238.948 237.316 243.317 231.368 245.589 224.53V224.53Z" fill="black"/>
<path d="M272 248H240V264H272V248Z" fill="black"/>
<path d="M280 56H232V72H280V56Z" fill="black"/>
<path d="M296 88H216V104H296V88Z" fill="black"/>
<path d="M288 453.766L320 464.433L352 453.766V392H288V453.766ZM304 408H336V442.234L320 447.567L304 442.234V408Z" fill="black"/>
</svg>
