<?xml version="1.0" encoding="UTF-8" standalone="no"?> <svg id="Kid_avatar" data-name="Kid avatar" xmlns="http://www.w3.org/2000/svg" viewBox="0 0 64 64"><path d="M19,30H16.5A3.5,3.5,0,0,1,13,26.5h0A3.5,3.5,0,0,1,16.5,23H19Z" style="fill:#ffcbbe"/><path d="M45,30h2.5A3.5,3.5,0,0,0,51,26.5h0A3.5,3.5,0,0,0,47.5,23H45Z" style="fill:#ffcbbe"/><path d="M50,61H14l.43-8.6A12,12,0,0,1,26.415,41h11.17A12,12,0,0,1,49.57,52.4Z" style="fill:#3780ea"/><path d="M38,40c0,3.314-6,10-6,10s-6-6.686-6-10a6,6,0,0,1,12,0Z" style="fill:#ffcbbe"/><path d="M32,42h0A14,14,0,0,1,18,28V15l6-5H40l6,5V28A14,14,0,0,1,32,42Z" style="fill:#ffddce"/><path d="M47,13.5a4.487,4.487,0,0,0-3.075-4.248,4.948,4.948,0,0,0-6.709-3.909,6.977,6.977,0,0,0-10.432,0,4.96,4.96,0,0,0-6.687,3.7,4.483,4.483,0,0,0-2.1,8.2V23h2l1.572-5.144a4.5,4.5,0,0,0,3.161-2.883c.09,0,.176.027.267.027a4.963,4.963,0,0,0,1.784-.343,6.977,6.977,0,0,0,10.432,0,4.973,4.973,0,0,0,1.036.268A4.487,4.487,0,0,0,42.5,18L44,23h2V16.3A4.46,4.46,0,0,0,47,13.5Z" style="fill:#3e3d42"/><path d="M26,27a1,1,0,0,0,1-1V24a1,1,0,0,0-2,0v2A1,1,0,0,0,26,27Z" style="fill:#3e3d42"/><path d="M38,27a1,1,0,0,0,1-1V24a1,1,0,0,0-2,0v2A1,1,0,0,0,38,27Z" style="fill:#3e3d42"/><path d="M39,32H37c0,1.626-2.29,3-5,3s-5-1.374-5-3H25c0,2.8,3.075,5,7,5S39,34.8,39,32Z" style="fill:#3e3d42"/></svg>